<?xml version="1.0" standalone="no"?>
<!DOCTYPE svg PUBLIC "-//W3C//DTD SVG 20010904//EN"
 "http://www.w3.org/TR/2001/REC-SVG-20010904/DTD/svg10.dtd">
<svg version="1.0" xmlns="http://www.w3.org/2000/svg"
 width="1024.000000pt" height="1024.000000pt" viewBox="0 0 1024.000000 1024.000000"
 preserveAspectRatio="xMidYMid meet">

<g transform="translate(0.000000,1024.000000) scale(0.100000,-0.100000)"
fill="#000000" stroke="none">
<path d="M4929 9355 c-3 -2 -39 -7 -80 -9 -78 -5 -112 -13 -104 -26 3 -4 -4
-10 -15 -13 -11 -3 -18 -1 -14 4 6 10 -12 4 -85 -28 -56 -25 -143 -81 -149
-95 -2 -4 -9 -8 -15 -8 -26 -1 -149 -131 -215 -228 -155 -229 -180 -609 -58
-885 64 -144 202 -314 322 -395 282 -190 671 -200 969 -24 27 15 32 21 15 17
-19 -6 -22 -4 -14 4 6 7 20 13 32 14 11 0 19 4 16 8 -2 4 8 17 23 29 24 18 25
20 6 15 -12 -3 -24 -1 -28 4 -4 7 1 8 11 4 13 -5 15 -3 9 7 -6 10 -4 12 11 6
31 -12 36 -12 40 2 1 7 0 8 -3 2 -3 -6 -11 -6 -25 1 -11 6 -34 8 -50 5 -37 -7
-36 -6 75 105 42 42 77 82 77 87 0 5 14 26 30 47 17 21 30 42 30 47 0 4 11 25
23 46 13 20 32 64 41 97 10 33 22 74 28 90 5 17 12 78 15 136 4 86 1 123 -16
195 -24 102 -57 202 -75 224 -6 8 -19 31 -28 50 -8 19 -36 61 -62 93 -26 31
-44 57 -40 57 4 0 -15 21 -42 48 -27 26 -53 46 -58 44 -4 -1 -6 13 -4 32 2 19
1 33 -3 30 -4 -2 -10 -1 -13 4 -2 4 -21 7 -42 7 -31 -1 -34 0 -20 10 14 11 14
13 -2 26 -37 31 -56 43 -49 33 4 -7 -1 -15 -10 -18 -9 -4 -19 -2 -22 3 -4 6
-18 15 -31 21 -26 11 -3 8 35 -5 12 -4 10 -1 -5 8 -31 17 -93 33 -70 17 11 -7
11 -10 2 -10 -7 0 -15 7 -19 16 -4 12 -15 15 -47 10 -23 -3 -57 -2 -76 3 l-35
9 30 2 c17 2 1 6 -35 10 -36 4 -66 4 -68 -1 -5 -11 -29 -12 -34 0 -3 9 -72 24
-79 16z m328 -61 c-3 -3 -12 -4 -19 -1 -8 3 -5 6 6 6 11 1 17 -2 13 -5z m-132
-164 c17 -4 23 -8 14 -9 -12 -1 -7 -12 21 -42 27 -29 43 -40 55 -35 28 10 65
-4 65 -26 0 -15 4 -18 23 -12 12 3 28 11 35 17 11 9 11 13 -5 19 -12 6 -8 7
14 4 44 -7 143 -78 213 -152 65 -70 128 -186 135 -249 2 -22 2 -32 -1 -22 -3
9 -10 17 -15 17 -5 0 -9 6 -9 13 0 25 -34 45 -70 41 -65 -5 -75 -9 -99 -41
-13 -18 -33 -35 -43 -39 -11 -3 -35 -22 -53 -41 -18 -19 -38 -32 -44 -29 -7 5
-11 -3 -11 -20 0 -23 -3 -26 -25 -22 -17 4 -29 0 -35 -11 -5 -9 -10 -11 -10
-4 0 17 -30 4 -30 -13 0 -7 -11 -16 -25 -20 -39 -10 -30 -31 15 -36 30 -3 40
0 40 11 0 11 6 9 23 -7 13 -12 29 -22 36 -22 6 0 31 -19 53 -41 23 -23 44 -37
46 -31 2 8 10 7 25 -3 12 -7 36 -16 52 -18 27 -3 30 -7 33 -45 2 -33 7 -42 22
-42 13 0 17 -5 13 -20 -3 -12 0 -20 7 -20 7 0 9 -8 5 -22 -7 -23 -7 -23 9 -3
18 24 20 14 5 -40 -31 -113 -220 -261 -397 -312 -75 -21 -310 -24 -367 -5 -21
7 -53 15 -71 16 -17 2 -36 6 -42 10 -6 3 -12 1 -14 -5 -2 -7 -17 -1 -35 15
-33 27 -49 34 -37 14 5 -8 2 -9 -12 -4 -10 5 -25 9 -32 9 -6 0 -10 2 -7 5 2 3
-17 18 -43 35 -65 42 -193 173 -217 222 -11 22 -23 42 -26 45 -11 9 -59 138
-59 159 0 11 -7 39 -16 61 -13 33 -16 68 -12 190 3 98 8 154 16 162 7 7 12 19
12 28 0 9 9 25 19 34 15 14 35 60 32 73 0 2 9 13 22 27 42 46 52 61 49 72 -4
19 19 29 29 13 6 -10 10 -5 15 19 4 22 12 32 25 32 10 0 20 4 24 10 3 5 12 7
19 4 7 -3 16 2 19 10 4 9 15 13 29 11 12 -3 26 1 30 8 6 9 10 8 18 -3 6 -10
10 -11 10 -2 0 6 9 12 21 12 11 0 30 5 42 11 22 12 22 12 3 -10 -24 -26 -20
-26 38 -1 90 40 185 59 296 58 58 0 119 -4 135 -8z m582 -562 c-3 -8 -6 -5 -6
6 -1 11 2 17 5 13 3 -3 4 -12 1 -19z m-125 -320 c-9 -9 -12 -7 -12 12 0 19 3
21 12 12 9 -9 9 -15 0 -24z m-112 -592 c0 -2 -7 -7 -16 -10 -8 -3 -12 -2 -9 4
6 10 25 14 25 6z"/>
<path d="M4609 9043 c-13 -16 -12 -17 4 -4 16 13 21 21 13 21 -2 0 -10 -8 -17
-17z"/>
<path d="M5616 8733 c-6 -14 -5 -15 5 -6 7 7 10 15 7 18 -3 3 -9 -2 -12 -12z"/>
<path d="M4994 8553 c-11 -2 -38 -22 -60 -44 -36 -37 -38 -43 -38 -100 2 -71
25 -103 86 -119 70 -19 159 24 174 85 5 22 10 24 47 18 23 -3 40 -3 37 0 -3 3
-18 7 -33 9 -23 3 -34 15 -56 58 -39 75 -89 105 -157 93z m-62 -73 c-12 -12
-22 -18 -22 -14 0 10 34 42 39 38 3 -2 -5 -13 -17 -24z m211 -80 c-3 -14 -12
-34 -19 -45 -13 -18 -14 -17 -14 17 0 20 5 49 11 65 10 26 12 27 19 8 5 -11 6
-31 3 -45z"/>
<path d="M5175 8430 c3 -5 8 -10 11 -10 2 0 4 5 4 10 0 6 -5 10 -11 10 -5 0
-7 -4 -4 -10z"/>
<path d="M5260 8390 c0 -5 5 -10 10 -10 6 0 10 5 10 10 0 6 -4 10 -10 10 -5 0
-10 -4 -10 -10z"/>
<path d="M5440 8300 c0 -5 7 -10 16 -10 8 0 12 5 9 10 -3 6 -10 10 -16 10 -5
0 -9 -4 -9 -10z"/>
<path d="M5502 8281 c-10 -6 -9 -10 7 -14 14 -3 21 0 21 9 0 16 -9 18 -28 5z"/>
<path d="M5195 9330 c-13 -5 -14 -9 -5 -9 8 0 24 4 35 9 13 5 14 9 5 9 -8 0
-24 -4 -35 -9z"/>
<path d="M10110 9299 c-41 -17 -62 -20 -127 -19 -46 0 -63 -3 -63 -13 0 -8
-14 -13 -37 -14 -21 -1 -39 -6 -41 -12 -2 -6 -21 -11 -42 -11 -21 0 -40 -4
-42 -9 -1 -5 -38 -12 -80 -16 -70 -7 -78 -6 -78 10 0 16 -10 17 -97 11 -54 -3
-108 -5 -120 -6 -14 0 -23 -6 -23 -15 0 -11 -11 -15 -40 -15 -29 0 -40 4 -40
15 0 18 -14 19 -41 4 -11 -6 -76 -10 -149 -10 -107 1 -130 -2 -130 -14 0 -28
-134 -46 -337 -44 -38 0 -63 -4 -63 -10 0 -7 -42 -11 -120 -11 -73 0 -120 -4
-120 -10 0 -6 -33 -10 -80 -10 -44 0 -80 -3 -80 -7 0 -5 -19 -9 -42 -9 -122
-4 -306 -14 -330 -20 -16 -3 -28 -10 -28 -15 0 -5 -18 -9 -40 -9 -39 0 -40 -1
-40 -34 0 -19 6 -37 13 -39 6 -3 4 -6 -7 -6 -17 -1 -16 -4 8 -26 14 -13 26
-29 26 -36 0 -7 15 -31 33 -55 24 -32 39 -43 60 -44 22 0 27 -5 27 -23 0 -19
9 -28 40 -40 35 -14 45 -14 74 -2 18 8 64 16 102 19 82 6 104 13 104 32 0 10
15 14 56 14 30 0 65 5 77 11 16 9 22 9 25 0 2 -7 33 -11 84 -11 70 0 80 2 85
19 5 20 61 32 167 35 37 1 61 6 64 14 5 16 79 16 85 0 3 -8 6 -6 6 4 1 16 12
17 116 11 103 -5 115 -4 115 10 0 15 15 17 123 17 68 0 172 3 231 7 98 6 107
8 103 25 -5 16 1 18 49 18 30 0 54 -4 54 -10 0 -5 18 -10 40 -10 22 0 40 5 40
10 0 6 18 10 40 10 27 0 40 -4 40 -14 0 -9 18 -15 53 -19 65 -6 107 1 107 19
0 10 13 14 40 14 33 0 40 -3 40 -20 0 -18 7 -20 80 -20 73 0 80 -2 80 -20 0
-17 7 -20 40 -20 l40 0 0 211 0 211 -40 -3 c-21 -2 -42 0 -46 4 -9 9 -13 8
-44 -4z"/>
<path d="M4058 8231 c-15 -21 -18 -22 -24 -8 -3 9 -13 17 -21 17 -12 0 -14 -8
-8 -37 6 -34 5 -36 -10 -23 -15 12 -19 12 -30 -3 -7 -9 -20 -17 -29 -17 -12 0
-16 -10 -16 -40 0 -30 -4 -40 -16 -40 -23 0 -87 -67 -71 -73 6 -3 3 -6 -8 -6
-12 -1 -26 -6 -32 -12 -6 -6 -24 -12 -39 -14 -46 -6 -442 -74 -524 -91 -118
-24 -257 -61 -354 -94 -49 -16 -91 -28 -93 -26 -2 1 0 57 4 124 8 121 1 156
-12 61 -4 -28 -10 -46 -14 -40 -5 7 -15 -2 -27 -25 -10 -21 -30 -49 -43 -63
-33 -37 -64 -81 -55 -81 3 0 0 -7 -7 -16 -12 -15 -11 -16 6 -11 11 3 49 13 84
22 103 26 88 9 -34 -38 -162 -63 -202 -79 -215 -88 -12 -9 -11 -10 5 -4 79 26
248 75 258 74 7 0 -32 -15 -86 -34 -100 -34 -313 -132 -305 -140 2 -3 37 9 76
26 62 25 75 28 91 17 17 -13 17 -16 1 -97 -10 -46 -21 -86 -26 -90 -5 -3 -11
-13 -13 -21 -2 -8 -10 -40 -18 -70 -8 -30 -16 -62 -18 -70 -11 -52 -29 -116
-36 -125 -4 -5 -12 -44 -18 -87 -6 -42 -15 -87 -21 -100 -10 -23 -25 -155 -40
-343 -5 -55 -14 -120 -20 -145 -17 -66 -24 -178 -12 -193 11 -14 19 -49 27
-127 5 -49 18 -128 30 -186 3 -12 19 -43 37 -71 18 -27 38 -56 43 -64 34 -53
66 -98 89 -124 15 -16 36 -46 48 -65 26 -43 105 -130 112 -123 2 2 14 -9 27
-26 12 -17 26 -28 32 -24 5 3 6 -3 2 -16 -7 -22 10 -30 18 -8 4 8 6 7 6 -3 1
-8 14 -29 31 -46 16 -18 26 -35 23 -38 -4 -3 -2 -6 4 -6 6 0 30 -18 54 -41
107 -99 294 -238 305 -226 2 2 -25 22 -59 44 -252 167 -430 419 -507 718 -54
210 -71 352 -77 645 -7 352 16 561 82 755 49 143 158 266 295 332 105 51 170
70 365 108 276 53 569 54 652 3 28 -17 45 -19 120 -15 49 3 117 10 153 16 36
6 95 11 133 11 37 0 67 5 67 9 0 5 20 9 45 8 38 -2 44 -5 39 -20 -5 -17 -5
-17 14 -1 20 17 19 18 -26 54 -107 84 -239 255 -297 382 -13 29 -24 48 -24 41
-1 -7 -8 -10 -17 -6 -8 3 -13 12 -10 19 3 8 1 14 -3 14 -10 0 -38 69 -43 105
-3 19 -4 19 -20 -4z m-1281 -547 c-3 -3 -12 -4 -19 -1 -8 3 -5 6 6 6 11 1 17
-2 13 -5z m-197 -547 c-21 -75 -45 -220 -56 -342 -5 -50 -10 -71 -13 -56 -15
60 27 347 64 435 24 57 27 38 5 -37z"/>
<path d="M10222 8133 c-13 -130 -9 -306 7 -311 8 -3 11 55 11 207 0 116 -1
211 -3 211 -2 0 -9 -48 -15 -107z"/>
<path d="M4130 8155 c0 -5 5 -17 10 -25 5 -8 10 -10 10 -5 0 6 -5 17 -10 25
-5 8 -10 11 -10 5z"/>
<path d="M9360 7821 c0 -28 -5 -53 -10 -56 -17 -10 -2 -24 20 -18 30 8 41 36
34 83 -5 30 -11 40 -25 40 -16 0 -19 -8 -19 -49z"/>
<path d="M5720 7786 c0 -3 9 -10 20 -16 11 -6 20 -8 20 -6 0 3 -9 10 -20 16
-11 6 -20 8 -20 6z"/>
<path d="M6168 7743 c7 -3 16 -2 19 1 4 3 -2 6 -13 5 -11 0 -14 -3 -6 -6z"/>
<path d="M6943 7743 c9 -2 23 -2 30 0 6 3 -1 5 -18 5 -16 0 -22 -2 -12 -5z"/>
<path d="M5760 7728 c149 -13 610 -59 665 -65 28 -3 48 -3 45 0 -3 3 -70 12
-150 21 -80 9 -181 21 -225 26 -145 18 -299 30 -365 28 -62 -1 -61 -1 30 -10z"/>
<path d="M7000 7731 c8 -4 44 -14 80 -21 103 -19 362 -110 462 -161 22 -11 37
-16 34 -11 -8 13 -184 102 -202 102 -8 0 -14 5 -14 11 0 5 -4 8 -10 4 -12 -8
-61 5 -55 15 2 4 -19 12 -48 19 -29 6 -90 20 -137 31 -91 21 -137 26 -110 11z"/>
<path d="M6368 7713 c12 -2 30 -2 40 0 9 3 -1 5 -23 4 -22 0 -30 -2 -17 -4z"/>
<path d="M6915 7715 c6 -2 83 -24 173 -49 89 -25 204 -62 254 -82 264 -103
316 -156 337 -339 15 -130 21 -160 30 -146 5 7 12 2 21 -15 13 -23 13 -27 -2
-38 -20 -14 -38 -186 -20 -186 5 0 15 -39 22 -87 7 -49 17 -104 23 -123 l12
-35 6 45 c4 31 6 16 6 -50 0 -52 -2 -85 -4 -72 -8 40 -33 26 -33 -19 0 -22 -4
-70 -9 -107 -5 -37 -15 -108 -22 -159 -6 -51 -16 -90 -21 -87 -4 3 -6 9 -3 14
7 11 26 272 21 277 -2 2 -9 -42 -15 -99 -6 -57 -22 -173 -36 -258 -14 -85 -25
-162 -24 -170 1 -21 30 77 36 122 3 21 8 36 12 33 4 -2 1 -48 -6 -102 -14 -97
-11 -177 8 -188 5 -4 18 13 29 37 11 24 19 33 16 21 -7 -38 15 -56 60 -49 21
3 45 7 52 8 17 2 15 38 -3 38 -19 0 -19 24 0 40 20 16 35 4 35 -29 0 -15 7
-36 15 -47 22 -29 17 -121 -10 -186 -4 -10 -3 -18 3 -18 5 0 22 34 37 75 15
41 29 75 32 75 6 0 -6 -79 -16 -105 -5 -11 -16 -37 -25 -59 -27 -63 -9 -54 20
10 27 60 49 219 25 184 -9 -13 -11 -13 -11 3 0 9 5 17 11 17 5 0 8 4 5 8 -3 5
-8 42 -12 83 -6 79 -15 93 -54 84 -14 -4 -34 -7 -45 -8 -11 -1 -26 -6 -34 -11
-10 -6 -18 -3 -28 9 -16 23 -16 36 -2 145 5 47 12 104 15 128 l5 42 98 0 c110
0 112 2 110 80 -1 23 -3 27 -6 13 -4 -22 -9 -23 -98 -21 -87 1 -95 3 -102 22
-12 31 -6 556 6 586 5 14 10 18 10 9 1 -11 14 -16 51 -18 31 -1 50 2 50 9 0 6
5 8 11 4 9 -5 10 1 5 22 -5 21 -4 25 4 14 5 -8 10 -24 11 -35 l0 -20 9 20 c14
32 11 91 -5 105 -9 7 -44 11 -97 10 -86 -2 -128 5 -128 22 0 6 11 23 24 39 29
34 44 122 26 144 -11 13 -16 12 -39 -6 l-26 -21 -10 37 c-6 20 -13 34 -16 31
-2 -3 -15 22 -29 55 -17 44 -34 68 -64 90 -57 42 -226 123 -321 154 -108 35
-312 85 -344 84 -14 0 -21 -2 -16 -4z m1010 -1374 c-3 -6 -11 -8 -17 -5 -6 4
-5 9 3 15 16 10 23 4 14 -10z m-238 -228 c-3 -10 -5 -4 -5 12 0 17 2 24 5 18
2 -7 2 -21 0 -30z"/>
<path d="M6588 7683 c6 -2 18 -2 25 0 6 3 1 5 -13 5 -14 0 -19 -2 -12 -5z"/>
<path d="M6493 7653 c9 -2 23 -2 30 0 6 3 -1 5 -18 5 -16 0 -22 -2 -12 -5z"/>
<path d="M6553 7643 c9 -2 25 -2 35 0 9 3 1 5 -18 5 -19 0 -27 -2 -17 -5z"/>
<path d="M6635 7630 c17 -4 39 -8 50 -8 16 0 15 2 -5 8 -14 4 -36 8 -50 8 -22
0 -22 -1 5 -8z"/>
<path d="M4522 7621 c-11 -6 -10 -10 4 -15 9 -4 22 -2 28 4 8 8 6 9 -8 4 -13
-5 -17 -4 -12 4 8 14 6 15 -12 3z"/>
<path d="M6796 7595 c50 -12 119 -34 154 -49 35 -14 66 -24 67 -22 12 12 -248
97 -291 95 -11 0 20 -11 70 -24z"/>
<path d="M4338 7593 c12 -2 32 -2 45 0 12 2 2 4 -23 4 -25 0 -35 -2 -22 -4z"/>
<path d="M7034 7511 c7 -11 46 -35 46 -28 0 3 -12 12 -26 22 -15 9 -23 12 -20
6z"/>
<path d="M7105 7460 c10 -11 20 -20 23 -20 3 0 -3 9 -13 20 -10 11 -20 20 -23
20 -3 0 3 -9 13 -20z"/>
<path d="M7140 7437 c0 -2 15 -16 33 -33 l32 -29 -29 33 c-28 30 -36 37 -36
29z"/>
<path d="M7200 7366 c0 -2 8 -10 18 -17 15 -13 16 -12 3 4 -13 16 -21 21 -21
13z"/>
<path d="M10030 7202 c-14 -2 -28 -9 -31 -14 -4 -7 -74 -12 -175 -14 -93 -2
-216 -7 -274 -10 -58 -3 -154 -7 -215 -9 -60 -2 -132 -8 -160 -15 -27 -6 -84
-12 -125 -12 -53 -1 -66 -3 -45 -9 17 -3 26 -7 20 -8 -5 -1 -39 -6 -75 -11
-46 -6 -66 -6 -71 2 -6 9 -21 9 -61 0 -29 -6 -116 -14 -193 -16 -77 -3 -175
-12 -217 -20 -43 -9 -84 -13 -92 -10 -8 3 -21 2 -28 -2 -15 -10 -25 -11 -113
-13 -53 -1 -67 -4 -71 -18 -12 -38 -27 -62 -36 -57 -4 3 -8 -2 -8 -11 0 -9 4
-13 10 -10 12 7 24 -38 17 -65 -3 -11 0 -20 6 -20 7 0 20 -14 29 -30 9 -17 13
-30 7 -30 -5 0 -2 -11 6 -24 11 -17 29 -26 60 -31 25 -3 45 -10 45 -16 0 -5
16 -9 35 -9 24 0 37 -6 45 -20 6 -11 17 -20 26 -20 23 0 94 -24 94 -32 0 -5 9
-8 20 -8 12 0 20 7 20 16 0 14 19 15 161 12 184 -3 199 -9 199 -72 0 -29 -4
-36 -20 -36 -17 0 -20 -7 -20 -40 0 -29 4 -40 15 -40 11 0 15 -11 15 -40 0
-36 3 -40 25 -40 18 0 25 5 25 20 0 11 4 20 10 20 5 0 15 -9 22 -20 7 -11 20
-20 30 -20 10 0 18 -9 20 -22 2 -19 10 -24 41 -26 34 -3 37 -1 37 22 0 14 5
26 10 26 6 0 10 -18 10 -40 0 -22 -4 -40 -10 -40 -5 0 -10 -7 -10 -15 0 -11
-11 -15 -41 -15 -33 0 -40 -3 -37 -17 3 -16 14 -18 81 -15 42 2 77 -1 77 -6 0
-10 55 -27 120 -37 60 -9 113 -27 123 -42 4 -7 15 -13 23 -13 9 0 29 -8 46
-17 30 -18 30 -18 53 12 13 16 22 31 20 33 -2 3 0 13 5 22 20 38 20 116 0 157
-11 22 -28 73 -39 113 -22 80 -31 96 -31 60 0 -21 -2 -22 -14 -10 -11 11 -13
26 -6 59 4 25 6 50 3 57 -3 7 -1 19 3 26 6 9 10 6 15 -12 6 -20 7 -17 8 18 1
23 5 42 10 42 5 0 11 9 14 21 3 11 15 23 26 26 12 3 21 9 21 14 0 14 49 42 78
45 37 3 143 32 164 44 23 13 78 13 78 0 0 -5 12 -7 28 -5 15 3 73 7 128 9 93
3 142 -1 217 -20 l27 -6 0 177 0 177 -40 -7 c-26 -4 -40 -3 -40 4 0 10 -72 12
-130 3z m-990 -542 c0 -17 -7 -20 -40 -20 -22 0 -40 -4 -40 -10 0 -5 -5 -10
-11 -10 -5 0 -8 4 -4 9 3 5 -7 12 -22 14 -26 4 -26 4 5 6 21 0 32 6 32 16 0
11 11 15 40 15 33 0 40 -3 40 -20z m-127 -91 c-8 -8 -13 -7 -18 2 -5 8 -4 10
3 5 7 -4 12 -2 12 5 0 7 3 9 7 6 4 -4 2 -12 -4 -18z m-38 -79 c3 -6 -4 -10
-17 -10 -18 0 -20 2 -8 10 19 12 18 12 25 0z"/>
<path d="M4070 7074 c90 -53 203 -186 234 -275 24 -66 18 -328 -6 -274 -5 13
-6 8 -2 -15 4 -19 3 -31 -2 -27 -4 4 -20 -18 -36 -50 -15 -32 -35 -69 -44 -83
-9 -14 0 -7 20 15 98 109 140 288 100 426 -14 48 -65 145 -83 159 -4 3 -17 19
-29 37 -26 37 -92 84 -142 101 -54 19 -58 14 -10 -14z"/>
<path d="M3770 7073 c-25 -8 -56 -23 -70 -33 -14 -9 -30 -19 -37 -21 -34 -11
-116 -107 -148 -172 -52 -108 -66 -171 -54 -259 10 -77 53 -180 96 -232 13
-16 21 -31 17 -35 -4 -3 -9 0 -11 6 -7 20 -73 89 -73 77 0 -6 16 -30 36 -53
25 -29 43 -41 55 -38 13 3 16 0 12 -11 -4 -10 -2 -13 5 -8 7 4 25 -2 42 -14
58 -41 139 -63 235 -63 102 0 152 14 230 68 50 34 145 158 131 172 -3 3 -6 1
-6 -5 0 -7 -16 -29 -35 -50 -19 -22 -31 -43 -27 -47 4 -5 2 -5 -5 -1 -13 7
-54 -15 -85 -46 -16 -16 -46 -26 -123 -42 -22 -5 -26 -4 -15 4 8 5 25 10 38
10 12 0 22 4 22 9 0 5 -37 7 -82 4 -68 -4 -94 -1 -143 16 -69 24 -68 24 -60
11 24 -39 -107 42 -144 89 -162 204 -96 473 146 595 29 14 58 26 64 26 6 0
-20 -16 -59 -35 -127 -64 -204 -174 -219 -315 -8 -82 23 -182 76 -242 22 -25
39 -47 36 -49 -5 -5 53 -45 79 -55 13 -5 17 -4 12 4 -4 7 -3 12 3 12 5 0 12
-4 15 -9 10 -16 136 -34 192 -27 162 19 327 167 354 317 11 57 9 77 -7 134 -4
16 -3 18 7 8 7 -7 16 -51 20 -100 7 -87 7 -88 9 -22 2 111 -13 166 -71 250
-29 43 -74 92 -101 113 -94 69 -253 96 -357 59z m138 -30 c-10 -2 -26 -2 -35
0 -10 3 -2 5 17 5 19 0 27 -2 18 -5z m-75 -10 c-7 -2 -19 -2 -25 0 -7 3 -2 5
12 5 14 0 19 -2 13 -5z m134 1 c-3 -3 -12 -4 -19 -1 -8 3 -5 6 6 6 11 1 17 -2
13 -5z m53 -14 c18 -12 2 -12 -25 0 -13 6 -15 9 -5 9 8 0 22 -4 30 -9z m56
-26 c18 -14 18 -14 -6 -3 -31 14 -36 19 -24 19 6 0 19 -7 30 -16z m75 -51 c13
-16 12 -17 -3 -4 -10 7 -18 15 -18 17 0 8 8 3 21 -13z m27 -131 c11 -26 22
-62 24 -80 3 -31 0 -35 -37 -48 -58 -20 -75 -18 -75 9 0 12 -11 49 -25 81 -13
33 -22 62 -19 65 15 15 90 37 100 29 7 -5 21 -30 32 -56z m72 0 c0 -4 -9 7
-20 23 -11 17 -20 35 -20 40 0 6 9 -5 20 -23 11 -18 20 -36 20 -40z m-130
-497 c-7 -8 -17 -15 -22 -15 -6 0 -5 7 2 15 7 8 17 15 22 15 6 0 5 -7 -2 -15z"/>
<path d="M2103 7065 c-5 -11 -13 -32 -17 -47 -5 -21 -16 -30 -46 -39 -22 -7
-40 -16 -40 -21 0 -5 4 -7 9 -4 5 3 12 -1 15 -10 10 -26 7 -36 -10 -30 -32 12
-94 -37 -94 -76 0 -20 -4 -26 -15 -22 -10 4 -16 -3 -21 -23 -4 -15 -10 -32
-15 -38 -4 -5 -10 -42 -14 -81 l-7 -71 43 1 44 1 3 -47 c3 -48 -1 -53 -38 -48
-8 1 -21 9 -27 17 -7 9 -16 14 -19 10 -11 -10 -14 -128 -6 -196 l7 -63 85 -4
c47 -3 95 -10 107 -16 25 -13 37 -64 38 -168 0 -57 -2 -65 -20 -68 -11 -2 -27
-6 -35 -9 -8 -4 -32 -7 -54 -8 -42 -1 -72 -28 -59 -55 4 -8 6 -52 4 -96 -2
-51 2 -84 8 -89 6 -3 11 -14 11 -24 0 -10 7 -24 15 -31 13 -11 15 -5 15 43 0
31 4 58 9 62 6 3 13 25 16 48 5 33 13 46 37 60 16 9 36 17 43 17 21 0 26 -30
10 -53 -19 -27 -19 -38 0 -31 8 4 22 1 30 -6 8 -7 22 -10 30 -6 11 4 19 -3 25
-19 16 -43 30 -28 30 33 0 76 12 94 33 50 9 -18 21 -47 27 -63 29 -75 41 58
15 167 -8 35 -19 83 -25 108 -20 92 -40 282 -55 520 -22 374 -24 393 -41 379
-18 -15 -25 -9 -33 33 -7 30 -8 31 -18 13z m-46 -552 c-2 -21 -4 -4 -4 37 0
41 2 58 4 38 2 -21 2 -55 0 -75z"/>
<path d="M5966 7059 c-50 -8 -110 -29 -103 -36 2 -2 33 4 68 13 113 29 233 4
312 -65 19 -18 38 -27 41 -22 5 8 -19 32 -81 81 -18 15 -123 40 -158 39 -16
-1 -52 -5 -79 -10z"/>
<path d="M5927 7020 c-58 -15 -135 -57 -183 -102 -63 -58 -96 -134 -102 -234
-4 -73 -1 -88 23 -143 33 -73 93 -131 186 -181 56 -30 76 -35 152 -38 78 -4
97 -1 157 22 117 46 208 144 228 246 14 70 14 189 0 169 -7 -10 -8 -6 -3 14 3
17 2 26 -4 23 -5 -3 -23 16 -40 43 -42 65 -114 131 -175 161 -55 26 -173 36
-239 20z m357 -263 c21 -63 21 -98 1 -91 -8 3 -29 -1 -46 -10 -39 -20 -49 -20
-49 -2 0 8 -18 49 -40 92 -21 44 -36 80 -32 82 4 1 25 13 47 26 l40 24 32 -36
c17 -20 38 -58 47 -85z"/>
<path d="M7352 7010 c0 -14 2 -19 5 -12 2 6 2 18 0 25 -3 6 -5 1 -5 -13z"/>
<path d="M8031 6984 c0 -11 3 -14 6 -6 3 7 2 16 -1 19 -3 4 -6 -2 -5 -13z"/>
<path d="M7810 6935 c0 -19 4 -26 14 -22 8 3 17 -1 20 -8 4 -11 14 -13 37 -8
21 4 34 2 40 -8 6 -10 9 -7 9 11 0 40 -14 52 -56 49 -22 -2 -45 0 -52 5 -8 5
-12 -1 -12 -19z"/>
<path d="M8042 6940 c0 -14 2 -19 5 -12 2 6 2 18 0 25 -3 6 -5 1 -5 -13z"/>
<path d="M6296 6941 c-3 -4 1 -17 9 -27 8 -10 15 -14 15 -7 0 6 -5 15 -10 18
-6 4 -8 11 -5 16 4 5 4 9 1 9 -3 0 -7 -4 -10 -9z"/>
<path d="M7940 6925 c0 -8 4 -15 10 -15 5 0 7 7 4 15 -4 8 -8 15 -10 15 -2 0
-4 -7 -4 -15z"/>
<path d="M8610 6625 c7 -8 16 -15 21 -15 5 0 9 7 9 15 0 9 -9 15 -21 15 -18 0
-19 -2 -9 -15z"/>
<path d="M3465 6450 c9 -30 13 -35 21 -27 3 3 -2 16 -11 29 l-17 23 7 -25z"/>
<path d="M8800 6322 c0 -52 4 -82 11 -82 7 0 9 24 4 78 -4 42 -9 79 -11 81 -2
2 -4 -32 -4 -77z"/>
<path d="M8880 6321 c0 -79 0 -80 -27 -84 -23 -4 2 -3 72 2 7 1 7 27 1 81 -8
67 -13 80 -28 80 -16 0 -18 -9 -18 -79z"/>
<path d="M5720 6356 c0 -3 9 -10 20 -16 11 -6 20 -8 20 -6 0 3 -9 10 -20 16
-11 6 -20 8 -20 6z"/>
<path d="M4025 6310 c-13 -5 -14 -9 -5 -9 8 0 24 4 35 9 13 5 14 9 5 9 -8 0
-24 -4 -35 -9z"/>
<path d="M5790 6294 c0 -3 29 -19 66 -36 59 -27 194 -52 194 -35 0 3 -33 11
-72 17 -40 7 -99 23 -130 35 -32 13 -58 21 -58 19z"/>
<path d="M2311 5934 c0 -11 3 -14 6 -6 3 7 2 16 -1 19 -3 4 -6 -2 -5 -13z"/>
<path d="M4580 5761 c0 -38 92 -138 171 -186 184 -113 395 -67 537 117 74 96
46 107 -55 22 -37 -31 -92 -68 -122 -83 -49 -23 -69 -26 -156 -26 -95 0 -103
2 -162 34 -34 18 -89 58 -122 87 -61 56 -91 67 -91 35z"/>
<path d="M1940 5620 c0 -17 95 -178 125 -212 12 -13 36 -45 54 -71 18 -27 36
-46 39 -43 3 3 -4 16 -15 29 -38 41 -127 174 -172 257 -17 30 -31 48 -31 40z"/>
<path d="M7726 5343 c-6 -14 -5 -15 5 -6 7 7 10 15 7 18 -3 3 -9 -2 -12 -12z"/>
<path d="M7075 5329 c-4 -6 -5 -12 -2 -15 2 -3 7 2 10 11 7 17 1 20 -8 4z"/>
<path d="M7754 5298 c-58 -66 -170 -164 -258 -226 -143 -103 -157 -112 -245
-162 -88 -51 -101 -67 -21 -27 73 36 141 78 198 122 30 22 69 49 88 61 42 25
163 124 172 141 4 6 27 33 53 60 25 26 49 54 53 61 14 24 -2 11 -40 -30z"/>
<path d="M7690 5310 c-9 -6 -10 -10 -3 -10 6 0 15 5 18 10 8 12 4 12 -15 0z"/>
<path d="M6980 5223 l-65 -68 68 65 c37 35 67 66 67 67 0 8 -10 -2 -70 -64z"/>
<path d="M7596 5225 c-37 -35 -76 -67 -86 -70 -10 -3 -21 -13 -24 -21 -10 -27
157 107 177 142 14 25 2 15 -67 -51z"/>
<path d="M2205 5240 c-3 -5 -1 -10 4 -10 6 0 11 5 11 10 0 6 -2 10 -4 10 -3 0
-8 -4 -11 -10z"/>
<path d="M2280 5221 c0 -10 19 -25 25 -20 1 2 -3 10 -11 17 -8 7 -14 8 -14 3z"/>
<path d="M2327 5175 c3 -8 9 -12 14 -9 12 7 11 11 -5 17 -10 4 -13 1 -9 -8z"/>
<path d="M2356 5147 c3 -10 9 -15 12 -12 3 3 0 11 -7 18 -10 9 -11 8 -5 -6z"/>
<path d="M2320 5147 c0 -2 15 -16 33 -33 l32 -29 -29 33 c-28 30 -36 37 -36
29z"/>
<path d="M6869 5123 c-13 -16 -12 -17 4 -4 16 13 21 21 13 21 -2 0 -10 -8 -17
-17z"/>
<path d="M9730 5103 c-80 -1 -309 -7 -510 -13 -201 -6 -581 -11 -845 -12 -456
0 -589 -7 -672 -33 -31 -10 -30 -42 3 -130 15 -39 31 -98 36 -132 6 -35 14
-63 19 -63 12 0 28 -42 40 -104 10 -56 28 -84 40 -65 5 9 15 8 41 -4 18 -8 79
-20 135 -25 110 -11 123 -15 123 -38 0 -17 17 -19 22 -2 3 8 11 5 23 -10 11
-12 29 -22 40 -22 11 0 35 -13 53 -29 24 -23 32 -38 32 -65 0 -28 8 -43 41
-73 l41 -38 -38 -6 -39 -7 45 2 c45 1 45 1 48 41 2 22 7 42 10 45 4 3 15 22
24 43 10 20 22 37 28 37 5 0 10 19 11 43 0 23 3 36 6 30 6 -16 42 -17 63 -2
11 8 7 9 -20 6 l-35 -4 24 16 c14 9 45 21 70 26 30 7 47 16 49 28 3 14 -4 17
-40 18 l-43 2 40 6 c22 3 43 2 47 -3 4 -6 40 -11 80 -11 40 -1 56 0 36 2 -21
2 -38 8 -38 14 0 12 77 12 82 -1 3 -11 47 -15 116 -12 36 2 42 5 42 23 0 20 4
21 53 15 102 -12 421 -25 427 -18 3 4 94 9 203 10 171 2 197 0 197 -13 0 -11
-12 -15 -42 -17 l-43 -1 38 -4 c26 -3 45 1 56 11 9 8 47 18 84 22 60 6 67 5
67 -11 0 -15 9 -17 78 -12 42 2 59 1 37 -2 -49 -9 -30 -21 39 -25 25 -1 52 -8
58 -14 7 -7 16 -12 20 -12 4 0 8 134 8 298 l0 297 -183 0 c-100 0 -247 -1
-327 -2z"/>
<path d="M7410 5082 c-14 -9 -28 -20 -31 -25 -3 -4 -30 -23 -59 -42 -30 -19
-50 -35 -44 -35 10 0 143 89 169 111 16 16 -9 9 -35 -9z"/>
<path d="M2401 5066 c28 -29 117 -86 133 -86 18 0 19 -2 6 -11 -13 -9 -13 -10
0 -6 8 2 39 -9 68 -25 29 -16 57 -26 62 -23 6 3 7 0 5 -8 -4 -9 14 -23 52 -43
32 -16 63 -30 68 -30 6 -1 16 -2 23 -3 7 0 11 -5 8 -10 -3 -5 10 -18 30 -30
19 -12 32 -17 29 -11 -3 5 -1 10 4 10 6 0 11 -4 11 -10 0 -24 320 -160 377
-160 7 0 13 -4 13 -9 0 -16 189 -72 276 -81 114 -12 118 -19 7 -13 -80 5 -257
50 -288 73 -5 4 -23 10 -40 14 -57 13 -220 79 -340 138 -66 32 -111 51 -100
42 59 -47 439 -211 592 -255 23 -6 40 -16 36 -22 -3 -5 8 -7 28 -2 23 4 29 3
20 -3 -11 -8 -9 -11 10 -16 89 -24 101 -30 81 -37 -26 -10 -128 -137 -184
-229 -63 -104 -142 -274 -173 -372 -26 -83 -48 -210 -59 -345 -5 -65 -4 -75
15 -94 13 -13 28 -19 41 -15 20 5 21 2 14 -72 -6 -73 -14 -112 -32 -156 -5
-14 -4 -17 5 -12 8 5 10 0 7 -21 -3 -15 -10 -55 -15 -88 -6 -33 -13 -70 -17
-82 -3 -13 -2 -23 4 -23 5 0 17 41 27 91 10 50 23 96 29 102 7 7 18 64 25 127
17 153 19 160 45 160 21 0 22 -4 19 -62 -2 -35 -8 -79 -13 -98 -5 -19 -12 -56
-15 -82 -4 -30 -11 -48 -19 -48 -13 0 -21 -33 -41 -163 -3 -17 -1 -26 5 -22 6
3 10 21 10 40 0 66 19 130 43 140 23 11 24 14 47 186 7 53 16 86 23 86 31 -1
47 4 47 14 0 6 14 24 30 41 17 16 30 36 30 44 0 44 83 179 105 170 7 -2 28 11
46 31 35 36 71 59 124 80 17 6 23 12 14 12 -8 1 -38 -10 -64 -24 -54 -27 -70
-27 -30 -1 40 26 144 49 225 50 60 1 84 -4 120 -23 50 -26 112 -80 104 -92 -2
-4 0 -10 5 -13 5 -4 13 -2 16 4 5 8 11 7 21 -1 8 -6 14 -8 14 -3 0 5 -14 17
-30 26 -17 10 -29 21 -28 25 2 4 -1 10 -7 12 -5 3 -19 13 -29 23 -39 36 -110
62 -180 66 -195 12 -370 -118 -447 -333 -27 -74 -26 -54 16 255 4 28 3 31 -5
15 -8 -15 -9 -8 -7 30 2 28 2 41 -1 31 -3 -15 -6 -16 -12 -6 -6 10 -10 6 -15
-16 -3 -16 -11 -37 -17 -48 -10 -18 -38 -208 -41 -276 -2 -30 -5 -35 -27 -35
-25 0 -25 1 -22 70 10 229 112 555 174 555 6 0 8 -11 4 -27 -5 -17 -3 -29 6
-35 10 -6 8 -13 -9 -27 -19 -16 -20 -20 -7 -25 9 -3 17 -6 19 -6 2 0 9 23 16
51 10 37 15 46 20 32 5 -15 10 -11 25 22 11 22 21 42 24 45 3 3 17 23 32 45
37 56 76 95 112 112 55 25 140 93 116 93 -6 0 -8 4 -5 10 3 6 -1 7 -9 4 -10
-4 -16 -1 -16 9 0 8 -6 18 -12 21 -20 9 119 -4 212 -20 47 -8 138 -18 202 -23
65 -4 121 -11 125 -16 11 -11 -187 2 -314 21 -58 8 -121 14 -141 12 l-37 -3
45 -43 c25 -24 74 -60 109 -79 112 -63 364 -139 530 -159 140 -17 144 -17 137
-6 -4 7 -17 12 -29 12 -68 2 -95 6 -91 12 2 3 -2 9 -8 12 -7 3 1 2 17 -2 44
-10 272 -5 330 8 28 6 86 15 130 20 44 5 123 21 175 36 52 14 142 30 200 35
109 10 147 17 95 18 -46 2 -10 21 40 21 47 0 61 8 66 35 6 28 39 33 39 6 0
-14 6 -21 20 -21 13 0 20 7 20 20 0 11 7 20 16 20 9 0 12 -5 8 -12 -5 -9 -2
-9 9 1 9 7 35 14 57 15 22 0 40 4 40 8 0 5 17 6 38 3 20 -2 58 -7 85 -10 26
-4 45 -10 42 -16 -4 -5 4 -5 19 1 23 8 29 5 60 -33 37 -46 141 -245 152 -292
4 -16 14 -43 22 -60 16 -31 60 -148 66 -175 2 -8 8 -14 13 -13 5 1 9 -8 8 -20
-2 -24 15 -48 29 -39 5 3 6 0 2 -6 -3 -5 6 -20 21 -32 18 -14 21 -18 7 -11
-12 6 -24 7 -28 4 -8 -8 14 -34 25 -28 4 3 13 -5 20 -17 12 -22 11 -22 -6 -8
-17 14 -17 14 -7 -7 7 -12 18 -28 24 -35 19 -20 38 -50 44 -70 5 -13 17 -18
44 -18 36 0 38 -2 45 -37 10 -53 66 -226 71 -220 3 2 -8 51 -24 108 -42 148
-48 189 -28 189 9 0 18 -12 22 -27 24 -105 48 -193 65 -237 11 -28 43 -116 71
-196 53 -153 55 -157 64 -148 3 4 -12 55 -35 115 -119 323 -168 481 -154 506
2 4 16 7 30 7 36 0 19 14 -19 16 -39 2 -48 12 -64 71 -7 26 -25 86 -40 133
-14 47 -35 116 -45 154 -10 38 -25 76 -32 85 -8 9 -14 25 -15 37 0 11 -10 36
-21 55 -12 19 -26 46 -32 62 -6 15 -15 27 -20 27 -5 0 -8 3 -7 8 3 9 -31 103
-44 118 -14 19 -20 91 -9 112 14 27 -15 52 -60 52 -26 0 -31 3 -19 10 17 12
12 11 -120 -19 -142 -33 -304 -56 -460 -66 -47 -3 -134 -10 -195 -15 -60 -6
-153 -9 -205 -8 -61 1 -73 3 -35 5 121 5 342 24 395 33 30 6 138 21 240 35
304 42 635 128 950 247 76 29 221 100 216 105 -2 3 -23 -5 -47 -18 -63 -32
-266 -111 -407 -158 -144 -49 -266 -78 -492 -120 -352 -64 -581 -81 -1215 -90
-602 -8 -718 -2 -1015 54 -41 8 -109 19 -150 26 -41 7 -93 18 -115 25 l-40 12
60 -3 c33 -2 104 -13 158 -24 131 -29 324 -57 477 -71 195 -18 1081 4 1417 35
422 40 857 142 1113 263 41 19 83 37 94 39 10 2 26 8 35 13 39 24 -139 -32
-189 -59 -9 -5 -30 -12 -48 -16 -18 -3 -30 -10 -27 -15 3 -4 -5 -6 -17 -2 -14
3 -19 2 -14 -6 7 -11 3 -13 -36 -16 -7 -1 -19 -7 -27 -14 -8 -8 -25 -12 -37
-9 -13 2 -21 1 -19 -3 4 -6 -57 -23 -195 -55 -3 -1 -23 -5 -45 -9 -22 -5 -75
-17 -118 -28 -42 -11 -85 -18 -95 -16 -9 3 9 10 41 18 l57 13 -32 15 c-18 7
-45 20 -59 27 -14 8 -61 26 -104 40 -102 33 -175 32 -280 -3 -94 -32 -105 -53
-33 -64 57 -8 136 -34 161 -52 15 -12 10 -14 -40 -19 -32 -4 -83 -9 -114 -13
l-56 -6 -28 85 c-27 83 -28 123 -3 115 7 -3 15 -15 18 -29 5 -20 7 -21 13 -6
3 9 15 17 25 17 10 0 22 4 28 9 12 11 117 38 179 46 28 4 68 13 90 20 22 7 62
19 88 26 26 6 46 14 44 16 -3 2 -51 -7 -108 -21 -57 -14 -140 -29 -184 -35
-92 -12 -317 -11 -326 1 -3 5 -29 4 -57 -3 -49 -10 -131 -8 -247 7 -27 4 -114
7 -192 7 -79 1 -143 4 -143 7 0 4 -67 10 -148 14 -82 3 -184 13 -228 22 -72
13 -84 13 -144 -2 -76 -20 -79 -22 -60 -34 13 -8 13 -10 -1 -10 -14 0 -221 49
-283 67 -12 3 -16 1 -12 -6 4 -6 18 -11 32 -11 14 0 27 -7 31 -16 4 -11 13
-14 30 -9 18 4 23 2 17 -6 -5 -9 1 -10 20 -5 18 4 25 3 21 -4 -3 -5 0 -10 7
-10 16 0 354 -48 391 -56 15 -3 27 -12 27 -20 0 -16 -59 -174 -70 -186 -6 -9
-314 9 -370 21 -27 6 -11 9 70 14 98 6 225 29 260 46 8 5 16 23 18 42 3 32 0
36 -35 51 -140 61 -353 30 -522 -76 l-42 -27 -72 14 c-40 8 -99 23 -132 32
-33 10 -76 18 -95 17 -26 -1 -30 1 -15 7 18 7 18 8 -5 13 -66 14 -202 59 -262
87 -39 18 -75 28 -84 24 -11 -4 -15 -2 -11 4 8 13 -20 26 -35 16 -6 -3 -8 -1
-4 5 8 13 -29 26 -45 16 -7 -4 -9 -3 -5 4 4 6 -11 19 -36 31 -54 25 -194 101
-230 125 -15 10 -33 19 -40 20 -34 8 -123 55 -173 93 -14 11 -91 46 -84 39z
m330 -187 c19 -16 20 -18 4 -10 -34 17 -51 31 -39 31 7 0 22 -9 35 -21z m656
-285 c-3 -3 -12 -4 -19 -1 -8 3 -5 6 6 6 11 1 17 -2 13 -5z m103 -30 l35 -14
-35 6 c-19 3 -39 10 -44 15 -14 13 2 10 44 -7z m2063 -121 c-7 -2 -19 -2 -25
0 -7 3 -2 5 12 5 14 0 19 -2 13 -5z m-1723 -103 c0 -4 -6 -10 -13 -13 -7 -3
-13 3 -13 13 0 10 6 16 13 13 7 -3 13 -9 13 -13z m1253 3 c-7 -2 -21 -2 -30 0
-10 3 -4 5 12 5 17 0 24 -2 18 -5z m-556 -229 c-3 -3 -12 -4 -19 -1 -8 3 -5 6
6 6 11 1 17 -2 13 -5z m-914 -407 c-15 -18 -30 -29 -32 -24 -4 10 38 57 52 57
5 0 -4 -15 -20 -33z"/>
<path d="M3260 4966 c0 -2 7 -7 16 -10 8 -3 12 -2 9 4 -6 10 -25 14 -25 6z"/>
<path d="M7167 4921 c-41 -26 -46 -36 -10 -17 17 9 35 20 38 26 8 13 6 12 -28
-9z"/>
<path d="M2605 4910 c3 -5 8 -10 11 -10 2 0 4 5 4 10 0 6 -5 10 -11 10 -5 0
-7 -4 -4 -10z"/>
<path d="M6485 4910 c-13 -6 -15 -9 -5 -9 8 0 22 4 30 9 18 12 2 12 -25 0z"/>
<path d="M7069 4863 c-13 -15 -12 -15 9 -4 23 12 28 21 13 21 -5 0 -15 -7 -22
-17z"/>
<path d="M2682 4854 c10 -10 20 -16 22 -13 3 3 -5 11 -17 18 -21 13 -21 12 -5
-5z"/>
<path d="M2720 4831 c0 -8 50 -34 56 -29 1 2 -11 11 -27 20 -16 9 -29 14 -29
9z"/>
<path d="M7088 4824 c-39 -21 -35 -28 5 -8 37 19 44 24 31 24 -5 -1 -21 -8
-36 -16z"/>
<path d="M6238 4823 c7 -3 16 -2 19 1 4 3 -2 6 -13 5 -11 0 -14 -3 -6 -6z"/>
<path d="M3718 4803 c7 -3 16 -2 19 1 4 3 -2 6 -13 5 -11 0 -14 -3 -6 -6z"/>
<path d="M3758 4793 c7 -3 16 -2 19 1 4 3 -2 6 -13 5 -11 0 -14 -3 -6 -6z"/>
<path d="M6010 4770 c-20 -6 -21 -8 -5 -8 11 0 29 3 40 8 25 11 -1 11 -35 0z"/>
<path d="M714 4616 c-7 -7 -15 -33 -19 -57 -10 -69 -15 -79 -36 -79 -10 0 -19
-6 -19 -13 0 -11 -44 -37 -63 -36 -4 0 -14 -7 -23 -15 -8 -9 -31 -20 -52 -26
-47 -13 -192 -13 -212 0 -8 5 -10 10 -5 10 17 1 -107 50 -127 50 -11 0 -32 7
-48 15 -19 10 -30 12 -30 5 0 -7 -8 -9 -21 -5 -13 4 -27 0 -40 -11 -17 -15
-19 -31 -19 -135 0 -105 2 -119 19 -128 10 -6 22 -7 26 -3 3 4 13 -2 21 -12 8
-12 14 -14 14 -7 0 10 12 11 49 6 28 -4 57 -2 67 3 52 28 104 39 170 36 98 -4
210 -42 251 -86 26 -27 42 -88 24 -88 -18 0 -13 -21 15 -57 18 -24 33 -33 55
-33 16 0 29 4 29 9 0 5 7 17 17 26 14 15 15 23 4 66 -7 26 -10 52 -7 57 15 25
28 259 15 268 -6 3 -7 14 -4 24 7 22 -11 70 -32 85 -13 10 -15 25 -11 78 3 37
5 67 4 67 0 -1 -6 -7 -12 -14z"/>
<path d="M9200 4550 c0 -5 8 -10 18 -10 9 0 27 -3 40 -6 16 -5 22 -2 22 10 0
12 -10 16 -40 16 -22 0 -40 -4 -40 -10z"/>
<path d="M9320 4552 c0 -10 22 -32 32 -32 4 0 8 9 8 20 0 13 -7 20 -20 20 -11
0 -20 -4 -20 -8z"/>
<path d="M9346 4465 c4 -8 8 -15 10 -15 2 0 4 7 4 15 0 8 -4 15 -10 15 -5 0
-7 -7 -4 -15z"/>
<path d="M9440 4458 c0 -12 1 -19 3 -17 1 2 9 12 16 22 12 14 11 17 -3 17 -10
0 -16 -8 -16 -22z"/>
<path d="M8407 4213 c-4 -3 -7 -21 -7 -40 0 -32 1 -33 40 -33 22 0 40 5 40 10
0 6 -4 10 -10 10 -5 0 -7 7 -4 15 11 29 -37 60 -59 38z"/>
<path d="M10222 4190 c-20 -52 -46 -104 -55 -111 -8 -6 -10 -45 -6 -109 1 -14
-1 -43 -5 -65 -5 -35 -4 -36 4 -10 6 20 7 -24 4 -125 -5 -127 -3 -162 10 -192
14 -34 51 -66 62 -55 2 2 3 161 2 353 -3 302 -5 344 -16 314z"/>
<path d="M9440 4171 c0 -6 -18 -11 -40 -11 -25 0 -40 -5 -40 -13 0 -7 -9 -18
-20 -25 -11 -7 -20 -19 -20 -26 0 -8 -5 -16 -10 -18 -7 -2 -11 -94 -13 -254
-2 -283 0 -297 62 -314 66 -18 117 -13 145 15 14 14 28 36 32 50 6 24 -8 353
-16 378 -6 17 -7 25 -15 86 -6 48 -14 69 -32 84 -13 12 -21 27 -19 34 3 7 1
15 -4 18 -6 4 -10 1 -10 -4z"/>
<path d="M4723 4073 c15 -2 39 -2 55 0 15 2 2 4 -28 4 -30 0 -43 -2 -27 -4z"/>
<path d="M4928 4063 c12 -2 32 -2 45 0 12 2 2 4 -23 4 -25 0 -35 -2 -22 -4z"/>
<path d="M2653 4025 c-7 -7 -36 -16 -65 -20 -76 -9 -171 -45 -315 -117 -45
-22 -84 -47 -87 -54 -3 -8 -12 -14 -19 -14 -24 0 -95 -58 -123 -100 -25 -37
-26 -42 -14 -90 7 -27 16 -53 21 -56 5 -3 9 -13 9 -22 0 -9 14 -46 32 -82 43
-88 44 -90 9 -50 -39 43 -39 35 0 -41 38 -77 157 -194 328 -325 158 -122 165
-125 205 -81 17 19 43 41 59 51 24 15 27 22 27 69 0 28 -11 138 -24 242 -29
225 -41 487 -28 605 10 87 6 108 -15 85z"/>
<path d="M3460 3926 c0 -2 7 -6 15 -10 8 -3 15 -1 15 4 0 6 -7 10 -15 10 -8 0
-15 -2 -15 -4z"/>
<path d="M3460 3903 c0 -4 5 -15 10 -23 8 -13 10 -13 10 2 0 9 -4 20 -10 23
-5 3 -10 3 -10 -2z"/>
<path d="M3830 3794 c36 -7 139 -10 128 -2 -7 4 -42 7 -78 7 -36 -1 -58 -3
-50 -5z"/>
<path d="M4017 3759 c7 -7 15 -10 18 -7 3 3 -2 9 -12 12 -14 6 -15 5 -6 -5z"/>
<path d="M7223 3720 c0 -25 2 -35 4 -22 2 12 2 32 0 45 -2 12 -4 2 -4 -23z"/>
<path d="M5825 3696 c-28 -19 -68 -58 -89 -87 -22 -30 -51 -69 -64 -87 -13
-18 -22 -35 -19 -38 2 -2 17 15 32 38 41 63 116 148 129 148 7 0 25 14 41 30
37 39 31 38 -30 -4z"/>
<path d="M6128 3723 c7 -3 16 -2 19 1 4 3 -2 6 -13 5 -11 0 -14 -3 -6 -6z"/>
<path d="M8527 3718 c-24 -19 -35 -159 -14 -176 26 -22 44 -4 51 50 7 52 -1
138 -13 138 -4 0 -15 -6 -24 -12z"/>
<path d="M4140 3682 c0 -5 7 -16 16 -23 19 -16 108 -133 159 -212 25 -37 43
-56 52 -53 8 3 11 1 8 -4 -4 -6 7 -15 24 -21 19 -7 28 -15 24 -22 -3 -7 -3 -9
2 -5 4 4 13 4 19 -2 8 -6 16 -3 24 10 7 12 8 21 2 25 -6 4 -9 3 -8 -2 7 -20
-11 -14 -64 19 -39 25 -70 56 -99 100 -23 35 -51 74 -63 87 -15 17 -17 25 -8
28 14 5 -33 68 -52 68 -6 0 -17 4 -23 8 -7 5 -13 4 -13 -1z m80 -65 c0 -6 -11
0 -25 13 -14 13 -25 28 -25 33 0 6 11 0 25 -13 14 -13 25 -28 25 -33z"/>
<path d="M4808 3594 c-104 -25 -240 -107 -302 -183 l-30 -36 40 38 c22 20 44
37 50 37 6 0 23 14 40 31 51 54 169 103 286 118 55 7 58 9 18 9 -25 0 -71 -6
-102 -14z"/>
<path d="M5019 3598 c61 -8 124 -28 204 -62 53 -23 46 -11 -10 18 -60 29 -167
56 -219 55 -31 -1 -27 -3 25 -11z"/>
<path d="M6306 3597 c3 -10 9 -15 12 -12 3 3 0 11 -7 18 -10 9 -11 8 -5 -6z"/>
<path d="M4790 3556 c-117 -30 -225 -109 -269 -193 -21 -42 -20 -41 49 28 46
46 76 69 86 65 8 -3 13 -2 10 3 -5 8 21 23 95 55 60 26 162 36 257 25 184 -21
354 -144 433 -314 72 -154 49 -385 -49 -495 -18 -19 -32 -39 -32 -43 0 -5 -4
-6 -9 -2 -9 5 -22 -20 -20 -39 1 -16 -25 -25 -44 -14 -23 12 -34 3 -18 -15 9
-11 4 -18 -23 -32 -19 -11 -33 -23 -30 -27 5 -7 -10 -12 -29 -9 -4 1 -15 -5
-23 -14 -14 -14 -36 -20 -58 -16 -4 1 -15 -4 -24 -11 -17 -14 -147 -18 -222
-6 l-45 7 35 -15 35 -14 -45 5 c-24 3 -64 15 -89 26 -55 24 -66 17 -14 -9 110
-57 317 -74 417 -36 13 5 17 4 12 -4 -4 -6 -23 -14 -44 -18 -20 -4 -44 -10
-52 -15 -35 -20 29 -8 109 21 46 16 88 27 92 24 32 -19 50 -388 30 -604 -13
-139 -18 -163 -32 -154 -5 3 -12 -8 -15 -25 -4 -16 -17 -40 -30 -52 -13 -12
-24 -28 -24 -36 0 -7 -3 -12 -7 -12 -19 3 -31 -2 -53 -23 -14 -13 -27 -23 -30
-23 -14 0 -80 -37 -80 -44 0 -10 298 -25 378 -20 37 3 52 0 52 -9 0 -9 -19
-11 -77 -7 -99 6 -535 6 -1235 0 l-548 -4 0 562 c0 454 -3 572 -14 616 -19 69
-39 91 -85 91 -30 1 -33 2 -18 11 18 11 18 12 -1 25 -19 13 -70 18 -119 11
-39 -6 -35 -14 11 -26 29 -7 53 -21 68 -41 14 -18 34 -31 51 -32 25 -2 27 -5
21 -33 -3 -16 -12 -39 -18 -50 -19 -30 -25 -76 -14 -104 16 -43 22 -146 21
-339 -1 -115 -6 -188 -13 -197 -8 -9 -6 -14 6 -19 15 -6 16 -20 10 -139 -4
-72 -8 -145 -9 -162 -1 -16 -9 -33 -17 -36 -8 -3 4 -9 28 -12 l42 -7 0 -61 0
-60 -352 5 c-194 2 -365 8 -381 11 l-27 7 2 431 3 431 173 -2 172 -2 10 26 c6
14 10 86 10 160 0 75 5 144 10 155 14 26 127 28 137 3 6 -15 -12 -37 -37 -46
-13 -5 10 -271 24 -285 8 -8 75 -8 82 0 4 4 9 69 11 144 2 93 7 139 15 145 9
5 -4 23 -40 56 -35 33 -50 54 -47 65 7 16 -27 33 -53 28 -8 -1 -19 3 -27 9 -8
7 -15 7 -19 1 -6 -8 -54 -8 -216 3 -19 2 -38 -2 -42 -8 -4 -6 -8 7 -8 29 0 42
-15 39 -23 -5 -4 -24 -4 -24 -6 3 0 16 -7 27 -15 27 -8 0 -17 6 -19 13 -3 6
-6 -7 -6 -31 -1 -57 -22 -51 -36 9 l-10 44 -3 -41 c-3 -45 -15 -54 -79 -54
-31 0 -33 2 -34 38 l-2 37 -6 -40 c-6 -38 -8 -40 -53 -49 -50 -8 -63 -24 -28
-33 28 -7 25 -16 -10 -32 -17 -7 -44 -24 -59 -37 l-28 -23 -8 -408 c-4 -224
-10 -430 -14 -458 l-6 -50 -13 75 c-12 72 -32 110 -57 110 -6 0 -17 10 -24 23
-7 13 -21 24 -33 24 -17 2 -19 -2 -13 -24 5 -23 3 -25 -16 -20 -15 4 -23 1
-26 -14 -4 -13 -14 -19 -32 -19 -28 0 -71 -25 -71 -41 0 -5 -9 -22 -19 -37
-10 -15 -22 -48 -25 -74 -3 -26 -12 -62 -20 -80 -14 -33 -14 -33 -15 38 -2
159 -116 272 -265 262 -74 -5 -120 -26 -176 -81 -65 -64 -85 -115 -85 -222 0
-78 4 -97 27 -145 l28 -55 -6 92 c-10 170 8 231 88 296 87 70 252 38 287 -56
25 -66 5 -156 -47 -210 -22 -23 -24 -29 -12 -37 8 -5 24 -10 35 -11 11 0 31
-2 45 -4 14 -2 70 -9 125 -15 229 -26 231 -27 35 -31 -102 -2 -209 -3 -238 -3
-28 0 -52 -3 -52 -8 0 -4 -7 -8 -15 -8 -8 0 -15 6 -15 14 0 7 -6 19 -14 25
-11 9 -15 7 -19 -10 -4 -16 -11 -19 -27 -14 -21 7 -50 -9 -50 -26 0 -5 15 -9
33 -9 l33 0 13 -97 c7 -54 13 -102 13 -108 1 -5 -2 -20 -6 -32 -6 -18 -1 -24
29 -39 20 -9 41 -27 47 -39 9 -19 46 -45 64 -45 3 0 4 17 1 38 -2 20 -2 29 0
20 2 -9 13 -20 23 -23 10 -3 25 -17 34 -30 9 -13 30 -38 46 -55 17 -17 30 -37
30 -45 0 -8 4 -15 9 -15 5 0 24 -15 43 -33 35 -34 71 -53 128 -70 50 -14 1368
-29 2520 -29 2605 0 2780 2 2884 32 35 11 87 53 84 69 -1 3 4 20 11 36 9 22
10 43 3 80 -11 53 -9 65 12 65 9 0 12 9 8 25 -5 29 -22 44 -22 21 0 -22 -17
-20 -30 3 -14 28 -13 31 13 31 19 1 16 6 -23 40 -31 27 -40 39 -27 40 13 0 17
9 17 40 0 29 -4 40 -15 40 -8 0 -15 6 -15 13 0 11 -31 16 -127 21 -118 6 -130
8 -151 31 -20 22 -60 26 -46 4 8 -13 -10 -11 -25 4 -6 6 -40 13 -74 14 -194 5
-412 19 -409 26 1 4 2 167 2 362 l0 355 34 0 c20 0 42 8 52 17 13 13 19 14 22
5 6 -18 231 -16 255 2 13 10 18 30 20 82 2 76 7 82 69 83 65 2 68 -2 68 -95
l0 -84 39 0 39 0 1 71 c1 55 -3 77 -18 97 -10 15 -20 32 -21 37 -7 27 -35 54
-61 60 -21 5 -29 11 -25 22 3 8 6 17 6 19 0 2 9 4 19 4 19 0 41 19 24 21 -4 0
-17 3 -28 6 -36 10 -439 14 -480 5 l-40 -9 53 -19 c48 -17 68 -34 41 -34 -6 0
-37 -12 -69 -26 l-58 -26 -60 22 -61 22 32 29 c17 16 27 32 23 36 -10 10 -626
11 -626 1 0 -4 -7 -8 -15 -8 -8 0 -25 -11 -37 -25 -18 -21 -31 -25 -73 -25
-43 0 -57 5 -81 27 -16 15 -33 28 -38 28 -12 0 -24 33 -26 70 -2 18 -4 23 -7
13 -2 -10 -8 -18 -13 -18 -13 0 -71 -63 -81 -87 -5 -13 -15 -23 -23 -23 -8 0
-16 -5 -18 -11 -2 -7 -18 -12 -34 -13 -36 -1 -42 -20 -7 -22 14 -1 21 2 16 10
-3 6 -2 8 2 3 5 -4 10 -24 12 -44 1 -20 7 -41 13 -47 26 -26 -5 -119 -42 -132
-10 -3 -18 -9 -18 -13 0 -4 -15 -12 -32 -19 -49 -17 -129 5 -180 51 -25 21
-28 32 -30 93 l-3 69 35 2 c19 1 51 7 70 14 19 6 42 14 50 17 10 3 6 7 -12 12
-53 15 -107 53 -117 82 -12 34 -21 37 -15 6 3 -13 -4 -3 -15 22 -11 25 -20 37
-20 26 -1 -16 -3 -17 -18 -5 -15 12 -16 12 -10 -3 4 -12 2 -18 -8 -18 -23 0
-19 69 6 110 27 46 46 60 83 61 24 1 26 3 9 6 -23 4 -30 17 -14 27 19 12 42
129 40 209 -1 90 -15 161 -49 252 -12 33 -22 67 -22 75 -1 8 -5 20 -10 27 -5
7 -7 17 -3 23 4 6 -9 27 -29 46 -34 33 -54 45 -41 23 4 -6 -28 12 -71 38 -102
63 -137 79 -215 98 -89 21 -198 18 -299 -9z m-1815 -815 c0 -7 -29 -29 -64
-47 -75 -39 -80 -46 -82 -99 l-1 -40 -9 39 c-5 22 -14 45 -20 53 -8 9 -8 13 0
13 6 0 11 11 11 24 0 28 17 44 67 62 47 17 98 14 98 -5z m2375 -152 c-14 -11
-38 -26 -55 -35 l-30 -14 25 17 c13 10 36 28 50 40 14 12 27 19 30 16 3 -2 -6
-13 -20 -24z m47 -61 c-3 -7 -5 -2 -5 12 0 14 2 19 5 13 2 -7 2 -19 0 -25z
m1993 -31 c0 -5 -4 -5 -10 -2 -5 3 -10 14 -10 23 0 15 2 15 10 2 5 -8 10 -19
10 -23z m-1985 -69 c1 -40 -1 -82 -6 -93 -5 -12 -8 19 -8 79 -1 113 10 124 14
14z m940 55 c-11 -2 -29 -8 -40 -13 -11 -4 -34 -13 -52 -20 -18 -7 -48 -27
-67 -46 -41 -39 -46 -41 -46 -14 0 11 5 20 11 20 6 0 26 12 45 26 41 32 99 53
139 52 19 0 23 -2 10 -5z m-1128 -9 c-3 -3 -12 -4 -19 -1 -8 3 -5 6 6 6 11 1
17 -2 13 -5z m900 -69 c0 -9 -7 -14 -16 -13 -10 2 -23 -11 -36 -37 -30 -60
-52 -88 -64 -80 -6 3 -11 1 -11 -5 0 -6 -5 -8 -10 -5 -6 4 -7 11 -4 17 5 7 2
8 -6 3 -18 -11 -39 20 -33 48 13 52 67 84 144 86 26 1 36 -3 36 -14z m-690
-42 c-3 -10 -5 -4 -5 12 0 17 2 24 5 18 2 -7 2 -21 0 -30z m1342 -2 c11 -7 10
-10 -6 -15 -23 -7 -53 2 -53 15 0 11 41 11 59 0z m-4112 -31 l35 0 -4 -187
c-2 -122 -8 -195 -15 -208 -12 -19 -12 -18 -13 10 -1 26 -3 27 -10 10 -5 -11
-10 -42 -11 -70 l-2 -50 -4 43 c-5 53 -23 55 -23 2 0 -22 -4 -40 -10 -40 -5 0
-10 18 -10 40 0 76 -19 40 -23 -42 -1 -46 -4 46 -5 204 -2 265 -1 287 16 291
9 3 23 3 30 1 8 -2 30 -4 49 -4z m4376 -47 c-4 -64 -13 -68 -13 -5 0 29 4 52
8 52 4 0 6 -21 5 -47z m244 -15 c-3 -8 -6 -5 -6 6 -1 11 2 17 5 13 3 -3 4 -12
1 -19z m0 -50 c-3 -8 -6 -5 -6 6 -1 11 2 17 5 13 3 -3 4 -12 1 -19z m-575 -28
c32 -3 60 -9 63 -12 3 -2 1 -97 -5 -209 -5 -112 -10 -266 -10 -341 l0 -137 35
-7 c66 -12 67 -11 61 153 -3 82 -8 239 -11 351 l-6 202 33 0 33 0 -3 -346 c-2
-241 0 -350 8 -359 8 -10 7 -14 -7 -18 -16 -4 -559 -3 -656 1 -23 1 -36 6 -32
12 4 6 6 168 5 360 l-1 350 73 1 c40 1 121 2 180 3 59 1 111 5 115 9 4 4 21 5
38 1 16 -4 56 -10 87 -14z m-530 -247 c-1 -137 -4 -254 -7 -260 -10 -29 -20
-10 -18 35 1 42 1 43 -5 12 -13 -66 -21 -6 -22 186 -2 295 -5 274 28 274 l27
0 -3 -247z m-467 217 c-11 -5 -15 -9 -9 -9 6 -1 23 -11 37 -24 l27 -22 -22
-60 c-37 -104 -86 -133 -172 -100 -50 19 -76 50 -76 92 -1 27 -1 27 -16 8 -15
-19 -16 -18 -9 15 9 44 44 81 93 96 44 14 178 17 147 4z m285 -49 c0 -5 7 -17
16 -26 17 -16 12 -51 -6 -40 -5 3 -10 1 -10 -6 0 -7 -3 -9 -7 -6 -3 4 -12 2
-20 -4 -10 -9 -13 -5 -13 20 0 17 6 40 12 51 13 21 28 27 28 11z m-283 -237
c25 -12 32 -21 27 -33 -9 -19 -43 -110 -50 -132 -13 -37 -84 -49 -139 -24 -43
21 -57 50 -53 114 3 50 6 55 38 72 44 24 130 25 177 3z m-230 -66 c-3 -7 -5
-2 -5 12 0 14 2 19 5 13 2 -7 2 -19 0 -25z m673 -158 c0 -5 -4 -10 -10 -10 -5
0 -10 -9 -10 -20 0 -11 5 -20 11 -20 5 0 7 -5 3 -11 -11 -18 -27 19 -20 47 6
23 26 34 26 14z m-440 -55 c11 -10 20 -26 20 -36 0 -10 6 -22 13 -26 8 -4 16
-15 19 -24 9 -23 31 -25 208 -19 151 5 155 6 158 28 4 27 22 29 22 2 0 -11 5
-20 10 -20 18 0 11 -30 -7 -31 -10 -1 -165 -2 -345 -4 l-328 -3 0 34 c0 49 26
93 63 110 44 20 140 14 167 -11z m2050 -255 c0 -17 -7 -20 -40 -20 -35 0 -40
-3 -40 -22 0 -20 -3 -18 -25 14 -14 20 -25 39 -25 42 0 4 29 6 65 6 58 0 65
-2 65 -20z m-5776 -45 c3 -8 1 -15 -4 -15 -6 0 -10 7 -10 15 0 8 2 15 4 15 2
0 6 -7 10 -15z"/>
<path d="M6331 3564 c0 -11 3 -14 6 -6 3 7 2 16 -1 19 -3 4 -6 -2 -5 -13z"/>
<path d="M6355 3557 c1 -12 3 -25 4 -29 0 -5 9 -8 18 -8 15 0 15 1 -2 13 -10
8 -15 19 -11 25 3 6 2 13 -2 16 -5 3 -8 -5 -7 -17z"/>
<path d="M7205 3470 c-4 -56 -5 -103 -2 -106 2 -3 8 41 12 96 3 56 5 104 2
106 -3 3 -8 -40 -12 -96z"/>
<path d="M7247 3544 c-4 -4 -7 -19 -6 -33 l0 -26 10 24 c10 26 8 47 -4 35z"/>
<path d="M7260 3485 c-1 -16 -2 -45 -1 -62 2 -18 -2 -33 -8 -33 -6 0 -11 6
-12 13 -1 21 -28 -96 -29 -125 0 -30 -19 -39 -21 -10 -2 30 -17 -71 -18 -121
-1 -28 3 -46 8 -42 6 3 13 -10 17 -30 4 -24 12 -35 23 -35 21 0 68 -48 73 -74
3 -16 10 -13 58 24 30 24 66 54 79 67 13 13 28 23 33 23 5 0 7 4 4 9 -3 5 1
31 9 59 9 29 13 63 9 79 -11 45 -33 83 -49 83 -8 0 -19 9 -25 20 -9 16 -8 22
4 26 12 5 13 11 5 25 -13 25 -59 26 -59 2 -1 -14 -6 -11 -25 12 -14 17 -25 37
-25 46 0 9 -7 22 -15 29 -13 11 -15 4 -17 -51 l-2 -64 -6 80 c-3 44 -8 67 -10
50z m-73 -307 c-3 -8 -6 -5 -6 6 -1 11 2 17 5 13 3 -3 4 -12 1 -19z m250 -90
c-3 -7 -5 -2 -5 12 0 14 2 19 5 13 2 -7 2 -19 0 -25z"/>
<path d="M6625 3491 c-3 -5 -1 -12 5 -16 5 -3 10 1 10 9 0 18 -6 21 -15 7z"/>
<path d="M6390 3479 c0 -5 5 -7 10 -4 6 3 10 8 10 11 0 2 -4 4 -10 4 -5 0 -10
-5 -10 -11z"/>
<path d="M5606 3433 c-6 -14 -5 -15 5 -6 7 7 10 15 7 18 -3 3 -9 -2 -12 -12z"/>
<path d="M4833 3433 c-18 -2 -34 -5 -34 -6 -1 -1 -5 -60 -8 -132 l-6 -130
-106 4 c-104 3 -105 3 -122 -23 -18 -27 -23 -106 -7 -106 6 0 10 -33 10 -80 0
-94 -5 -91 133 -87 48 1 87 2 88 2 1 0 4 -66 8 -147 3 -80 9 -150 13 -154 4
-4 14 -1 22 5 11 9 45 11 118 8 57 -3 118 -3 136 0 l32 5 0 144 0 144 119 0
c66 0 122 4 125 8 6 10 10 10 -138 15 -67 2 -121 9 -125 15 -3 5 -5 -40 -5
-101 1 -62 -1 -132 -3 -157 l-5 -45 -127 5 c-112 4 -119 5 -61 10 l65 7 -62 1
-63 2 0 135 c0 112 -2 135 -15 135 -8 0 -13 6 -11 13 1 6 1 9 -1 5 -3 -5 -23
-8 -46 -7 -33 0 -38 2 -22 9 13 6 15 9 5 9 -8 0 -22 -3 -29 -8 -12 -8 -10 -11
10 -15 13 -3 33 -7 44 -10 11 -2 -20 -3 -70 -3 l-90 2 -3 108 c-2 82 0 107 10
108 7 0 4 4 -7 9 -13 5 27 9 110 10 72 2 133 2 137 2 15 -2 15 27 0 57 -13 27
-13 42 -4 95 14 75 15 106 3 106 -4 0 -9 -25 -10 -57 -2 -80 -11 -80 -11 0 l0
67 103 1 c56 1 114 3 130 5 l27 3 0 -142 0 -142 117 3 c65 2 120 6 122 8 14
13 -23 19 -115 19 l-104 -1 0 121 c0 66 -4 126 -9 133 -8 14 -202 25 -268 15z
m14 -265 c-3 -7 -5 -2 -5 12 0 14 2 19 5 13 2 -7 2 -19 0 -25z"/>
<path d="M4420 3396 c0 -2 7 -7 16 -10 8 -3 12 -2 9 4 -6 10 -25 14 -25 6z"/>
<path d="M4878 3388 c5 -5 16 -8 23 -6 8 3 3 7 -10 11 -17 4 -21 3 -13 -5z"/>
<path d="M5450 3350 c0 -3 10 -11 23 -19 12 -7 18 -10 14 -5 -4 4 2 13 14 20
21 11 19 11 -14 10 -20 0 -37 -3 -37 -6z"/>
<path d="M4404 3243 c-27 -55 -28 -66 -29 -188 0 -121 2 -135 30 -202 16 -40
32 -73 35 -73 4 0 -7 37 -22 83 -27 76 -28 91 -25 197 3 83 10 132 25 175 11
33 19 61 17 63 -1 2 -16 -23 -31 -55z"/>
<path d="M4470 3269 c-7 -11 -10 -23 -7 -25 2 -2 9 7 15 21 14 30 7 33 -8 4z"/>
<path d="M6692 3250 c0 -14 2 -19 5 -12 2 6 2 18 0 25 -3 6 -5 1 -5 -13z"/>
<path d="M4371 3244 c0 -11 3 -14 6 -6 3 7 2 16 -1 19 -3 4 -6 -2 -5 -13z"/>
<path d="M4450 3220 c0 -5 5 -10 10 -10 6 0 10 5 10 10 0 6 -4 10 -10 10 -5 0
-10 -4 -10 -10z"/>
<path d="M4658 3043 c12 -2 32 -2 45 0 12 2 2 4 -23 4 -25 0 -35 -2 -22 -4z"/>
<path d="M4640 2990 c0 -5 4 -10 9 -10 6 0 13 5 16 10 3 6 -1 10 -9 10 -9 0
-16 -4 -16 -10z"/>
<path d="M4881 2974 c0 -11 3 -14 6 -6 3 7 2 16 -1 19 -3 4 -6 -2 -5 -13z"/>
<path d="M5352 2940 c0 -19 2 -27 5 -17 2 9 2 25 0 35 -3 9 -5 1 -5 -18z"/>
<path d="M4830 2941 c0 -11 4 -22 9 -25 4 -3 6 6 3 19 -5 30 -12 33 -12 6z"/>
<path d="M4855 2950 c3 -5 8 -10 11 -10 2 0 4 5 4 10 0 6 -5 10 -11 10 -5 0
-7 -4 -4 -10z"/>
<path d="M4350 2905 c0 -14 4 -25 9 -25 4 0 6 11 3 25 -2 14 -6 25 -8 25 -2 0
-4 -11 -4 -25z"/>
<path d="M4861 2894 c0 -11 3 -14 6 -6 3 7 2 16 -1 19 -3 4 -6 -2 -5 -13z"/>
<path d="M4843 2800 c0 -47 2 -66 4 -42 2 23 2 61 0 85 -2 23 -4 4 -4 -43z"/>
<path d="M2803 2835 c0 -22 2 -30 4 -17 2 12 2 30 0 40 -3 9 -5 -1 -4 -23z"/>
<path d="M2672 2830 c0 -19 2 -27 5 -17 2 9 2 25 0 35 -3 9 -5 1 -5 -18z"/>
<path d="M4372 2835 c0 -16 2 -22 5 -12 2 9 2 23 0 30 -3 6 -5 -1 -5 -18z"/>
<path d="M6848 2813 c7 -3 16 -2 19 1 4 3 -2 6 -13 5 -11 0 -14 -3 -6 -6z"/>
<path d="M4877 2719 c7 -7 15 -10 18 -7 3 3 -2 9 -12 12 -14 6 -15 5 -6 -5z"/>
<path d="M4850 2695 c-9 -11 -9 -15 -1 -15 7 0 9 -4 6 -10 -3 -5 -1 -10 4 -10
6 0 11 11 11 25 0 29 -3 31 -20 10z"/>
<path d="M5048 2633 c7 -3 16 -2 19 1 4 3 -2 6 -13 5 -11 0 -14 -3 -6 -6z"/>
<path d="M6832 2585 c0 -16 2 -22 5 -12 2 9 2 23 0 30 -3 6 -5 -1 -5 -18z"/>
<path d="M6853 2578 c3 -21 -1 -28 -17 -31 -16 -3 -15 -5 7 -6 28 -1 32 9 16
44 -8 17 -9 16 -6 -7z"/>
<path d="M5932 2560 c0 -14 2 -19 5 -12 2 6 2 18 0 25 -3 6 -5 1 -5 -13z"/>
<path d="M3655 2536 c-5 -26 -3 -40 10 -52 16 -16 16 -14 10 32 -9 62 -12 65
-20 20z"/>
<path d="M4838 2563 c7 -3 16 -2 19 1 4 3 -2 6 -13 5 -11 0 -14 -3 -6 -6z"/>
<path d="M5045 2560 c-3 -5 -1 -10 4 -10 6 0 11 5 11 10 0 6 -2 10 -4 10 -3 0
-8 -4 -11 -10z"/>
<path d="M4744 2444 c17 -9 58 -18 95 -20 36 -1 53 -1 36 2 -27 4 -86 16 -140
30 -12 3 -8 -2 9 -12z"/>
<path d="M5658 2453 c6 -2 18 -2 25 0 6 3 1 5 -13 5 -14 0 -19 -2 -12 -5z"/>
<path d="M1911 2363 c-1 -7 -14 -13 -30 -13 -40 0 -61 -9 -55 -24 3 -7 -7 -18
-21 -26 -14 -7 -25 -19 -25 -26 0 -7 -6 -15 -12 -17 -24 -10 102 -7 202 4 122
14 212 2 296 -41 33 -16 53 -22 50 -14 -3 8 0 11 10 7 8 -3 13 -12 10 -19 -3
-8 0 -11 10 -7 20 8 -12 43 -86 92 -95 65 -157 84 -255 80 -51 -3 -87 0 -89 6
-3 6 -5 4 -5 -2z m244 -39 c44 -18 10 -16 -70 6 l-70 19 55 -6 c30 -3 69 -11
85 -19z m2 -30 c-3 -3 -12 -4 -19 -1 -8 3 -5 6 6 6 11 1 17 -2 13 -5z m78 -22
c-3 -3 -11 0 -18 7 -9 10 -8 11 6 5 10 -3 15 -9 12 -12z m55 -37 c11 -13 10
-14 -4 -9 -9 3 -16 10 -16 15 0 13 6 11 20 -6z"/>
<path d="M458 2250 c-10 -11 -18 -31 -18 -45 0 -14 -4 -25 -10 -25 -5 0 -10
-7 -10 -15 0 -8 -4 -15 -10 -15 -5 0 -10 -16 -10 -35 0 -24 -5 -35 -15 -35
-10 0 -15 -10 -15 -29 0 -16 -4 -41 -10 -56 -5 -14 -12 -45 -15 -68 -3 -23
-10 -69 -16 -102 -6 -33 -12 -67 -13 -75 -1 -8 -5 -42 -9 -75 -8 -61 -37 -133
-69 -169 -10 -11 -18 -24 -18 -28 0 -5 -11 -26 -25 -46 -14 -20 -25 -42 -25
-49 0 -18 51 -74 64 -71 6 0 25 -5 41 -12 48 -21 555 -25 651 -5 93 19 123 33
130 61 8 33 0 69 -14 66 -9 -2 -11 4 -7 18 4 12 2 26 -4 33 -24 30 -45 116
-45 190 -1 43 2 83 5 89 10 17 -12 88 -28 88 -19 0 -83 52 -83 68 0 6 -7 12
-15 12 -15 0 -55 19 -65 31 -3 3 -21 14 -40 25 -26 13 -31 19 -17 22 9 2 17 7
17 12 0 13 -28 32 -39 26 -5 -4 -27 12 -48 35 -21 22 -51 48 -66 56 -16 8 -33
27 -39 44 -5 16 -16 30 -24 30 -40 4 -61 19 -66 47 l-3 23 -17 -21z"/>
<path d="M498 2233 c7 -3 16 -2 19 1 4 3 -2 6 -13 5 -11 0 -14 -3 -6 -6z"/>
<path d="M2350 2170 c-8 -5 -10 -10 -4 -10 6 0 23 -17 37 -37 19 -26 27 -32
27 -20 0 10 -11 29 -24 42 -13 13 -21 26 -18 29 8 9 -1 7 -18 -4z"/>
<path d="M3650 2157 c0 -33 9 -57 22 -57 6 0 7 10 4 23 -4 12 -8 27 -10 34 -5
25 -16 25 -16 0z"/>
<path d="M2493 2065 c0 -22 2 -30 4 -17 2 12 2 30 0 40 -3 9 -5 -1 -4 -23z"/>
<path d="M2503 1975 c0 -22 2 -30 4 -17 2 12 2 30 0 40 -3 9 -5 -1 -4 -23z"/>
<path d="M8026 1943 c-34 -9 -94 -51 -120 -85 -44 -59 -66 -118 -66 -185 0
-34 -4 -64 -8 -67 -4 -3 -17 18 -28 45 -10 28 -26 57 -34 64 -18 16 -100 47
-100 38 0 -3 -6 0 -14 6 -11 9 -15 8 -21 -6 -9 -23 -20 -227 -13 -245 5 -11
37 -12 195 -2 205 12 246 23 216 56 -14 16 -14 18 1 24 15 6 15 8 -3 26 -12
10 -28 32 -36 49 -19 35 -37 29 -30 -9 5 -23 4 -22 -10 7 -19 41 -19 91 -2
134 26 61 158 128 213 107 14 -6 34 -10 46 -10 24 0 66 -32 90 -68 10 -15 18
-21 18 -12 0 25 -113 126 -149 133 -37 8 -115 7 -145 0z"/>
<path d="M3646 1784 c-11 -30 -6 -53 20 -81 l26 -28 -7 25 c-3 14 -9 42 -12
63 -6 39 -17 48 -27 21z"/>
<path d="M4178 1775 c-7 -7 2 -54 11 -59 4 -3 5 11 3 30 -4 35 -5 37 -14 29z"/>
<path d="M7533 1640 c0 -25 2 -35 4 -22 2 12 2 32 0 45 -2 12 -4 2 -4 -23z"/>
<path d="M7533 1515 c0 -22 2 -30 4 -17 2 12 2 30 0 40 -3 9 -5 -1 -4 -23z"/>
<path d="M1635 1245 c81 -62 145 -91 145 -64 0 9 -76 48 -140 70 -24 9 -24 8
-5 -6z"/>
<path d="M6149 726 c-3 -3 -70 -14 -149 -25 -319 -45 -636 -62 -1101 -62 -447
1 -639 13 -967 62 -74 11 -139 18 -145 16 -7 -2 7 -16 31 -30 40 -26 54 -47
32 -47 -22 0 -51 -97 -67 -223 -16 -124 -15 -131 2 -166 11 -20 26 -44 34 -53
13 -16 12 -18 -7 -18 -41 0 -22 -18 51 -48 101 -42 284 -86 442 -105 11 -1 25
-6 32 -10 6 -4 31 -7 55 -7 24 0 212 -3 418 -6 395 -7 550 0 815 37 175 24
330 61 295 69 l-25 6 23 8 c12 4 22 11 22 16 0 4 13 22 29 39 16 17 31 38 35
46 3 8 12 15 19 15 8 0 19 18 26 41 8 27 17 39 26 35 8 -3 14 2 14 12 0 9 2
51 4 92 2 41 0 108 -4 149 -9 73 -8 74 19 97 15 13 32 24 37 24 6 0 16 9 23
20 10 16 10 20 -1 20 -8 0 -16 -2 -18 -4z"/>
<path d="M4138 3 c18 -2 45 -2 60 0 15 2 0 4 -33 4 -33 0 -45 -2 -27 -4z"/>
</g>
</svg>
