<?xml version="1.0" standalone="no"?>
<!DOCTYPE svg PUBLIC "-//W3C//DTD SVG 20010904//EN"
 "http://www.w3.org/TR/2001/REC-SVG-20010904/DTD/svg10.dtd">
<svg version="1.0" xmlns="http://www.w3.org/2000/svg"
 width="500.000000pt" height="500.000000pt" viewBox="0 0 500.000000 500.000000"
 preserveAspectRatio="xMidYMid meet">

<g transform="translate(0.000000,500.000000) scale(0.100000,-0.100000)"
fill="#000000" stroke="none">
<path d="M2443 3733 c26 -2 67 -2 90 0 23 2 2 3 -48 3 -49 0 -68 -1 -42 -3z"/>
<path d="M2305 3715 c-53 -17 -34 -18 35 0 30 7 44 13 30 13 -14 0 -43 -5 -65
-13z"/>
<path d="M2630 3715 c30 -8 60 -14 65 -14 20 2 -71 27 -95 27 -14 0 0 -6 30
-13z"/>
<path d="M2175 3667 c-89 -48 -145 -89 -195 -143 -68 -73 -153 -204 -133 -204
5 0 19 22 31 48 54 115 179 232 317 298 38 19 63 34 55 34 -8 0 -42 -15 -75
-33z"/>
<path d="M2797 3656 c129 -69 230 -168 291 -283 15 -29 30 -53 34 -53 14 0
-68 133 -115 185 -51 58 -143 128 -214 164 -68 34 -64 24 4 -13z"/>
<path d="M2478 3663 c7 -3 16 -2 19 1 4 3 -2 6 -13 5 -11 0 -14 -3 -6 -6z"/>
<path d="M2323 3645 c-70 -19 -166 -68 -234 -121 -49 -38 -123 -123 -143 -164
-4 -8 0 -6 8 5 138 177 264 258 441 284 50 7 53 9 20 9 -22 0 -64 -6 -92 -13z"/>
<path d="M2575 3649 c79 -12 116 -24 199 -67 85 -44 177 -127 228 -206 l38
-59 0 -284 0 -283 -27 -42 c-43 -69 -123 -148 -203 -201 -41 -27 -67 -47 -57
-43 33 11 140 89 185 135 24 25 60 70 79 99 28 44 38 52 64 52 l30 0 -26 -49
c-53 -97 -157 -202 -256 -259 -30 -17 -90 -43 -134 -58 -72 -25 -94 -28 -210
-28 -116 0 -138 3 -210 28 -44 15 -104 41 -134 58 -99 57 -203 162 -256 259
l-26 49 30 0 c26 0 36 -8 65 -54 134 -210 393 -327 626 -284 47 9 101 23 120
32 19 9 26 14 15 10 -95 -28 -153 -37 -230 -37 -165 0 -298 51 -416 161 -37
35 -82 85 -99 110 l-30 47 -1 304 c0 290 -1 302 -18 287 -15 -14 -47 -16 -209
-16 l-192 0 0 -280 0 -280 163 0 162 0 35 -63 c19 -34 71 -98 115 -142 215
-216 525 -265 804 -128 77 38 110 62 175 127 45 45 97 109 116 143 l35 63 163
0 162 0 0 280 0 280 -192 0 c-106 0 -198 4 -203 8 -6 4 -25 30 -44 59 -94 149
-319 287 -461 282 -26 -1 -19 -4 25 -10z m-877 -521 c16 -34 3 -68 -49 -130
l-40 -48 50 0 c39 0 51 -4 51 -15 0 -12 -16 -15 -80 -15 -44 0 -80 3 -80 6 0
3 25 36 55 72 61 73 74 104 55 127 -18 21 -57 19 -70 -5 -11 -20 -40 -28 -40
-11 0 45 57 76 105 57 16 -7 36 -24 43 -38z m182 -43 c0 -69 3 -85 15 -85 8 0
15 -9 15 -20 0 -11 -7 -20 -15 -20 -8 0 -15 -9 -15 -20 0 -11 -7 -20 -15 -20
-8 0 -15 9 -15 20 0 18 -7 20 -55 20 -48 0 -55 2 -55 20 0 28 106 190 125 190
12 0 15 -16 15 -85z m1480 80 c0 -15 -135 -238 -147 -242 -32 -13 -27 9 28
102 32 55 59 103 59 108 0 4 -27 7 -60 7 -55 0 -70 6 -53 23 8 8 173 9 173 2z"/>
<path d="M1813 3056 l-32 -51 31 -3 c16 -2 32 -1 35 1 2 3 3 27 1 55 l-3 49
-32 -51z"/>
<path d="M2188 3375 c-131 -42 -201 -211 -139 -335 23 -46 415 -450 436 -450
6 0 106 96 222 213 195 196 212 216 227 266 20 67 20 84 1 148 -32 109 -151
185 -263 168 -61 -9 -98 -28 -147 -76 l-41 -39 -34 36 c-70 73 -169 99 -262
69z m170 -20 c20 -9 57 -36 82 -61 l46 -44 29 31 c54 57 104 82 175 86 57 4
71 2 120 -24 77 -41 113 -94 118 -177 7 -110 1 -119 -226 -348 -113 -115 -211
-208 -217 -208 -6 0 -100 89 -208 198 -212 214 -236 249 -237 338 0 53 34 136
69 168 59 53 173 72 249 41z"/>
<path d="M2770 3297 c0 -4 14 -26 31 -51 25 -34 31 -55 32 -94 0 -28 4 -49 9
-46 14 9 8 78 -11 119 -16 35 -61 88 -61 72z"/>
<path d="M2432 3158 c-7 -7 -12 -34 -12 -60 l0 -48 -54 0 c-59 0 -66 -7 -66
-61 0 -54 15 -69 70 -69 l50 0 0 -50 c0 -56 15 -70 72 -70 46 0 58 15 58 72
l0 48 48 0 c58 0 72 12 72 61 0 63 -6 69 -66 69 l-54 0 0 54 c0 40 -4 55 -16
60 -27 10 -89 7 -102 -6z m108 -63 l0 -55 55 0 55 0 0 -50 0 -50 -55 0 -54 0
-3 -57 -3 -58 -50 0 -50 0 -3 58 -3 57 -54 0 -55 0 0 50 0 50 55 0 55 0 0 48
c0 27 3 52 7 55 3 4 28 7 55 7 l48 0 0 -55z"/>
<path d="M2800 3045 c-8 -9 -8 -15 -2 -15 12 0 26 19 19 26 -2 2 -10 -2 -17
-11z"/>
<path d="M1440 2211 c-14 -27 -4 -47 36 -72 41 -25 40 -44 -2 -44 -36 0 -48
-19 -15 -23 46 -7 71 6 71 37 0 23 -8 34 -35 51 -41 25 -41 45 -2 45 16 -1 27
5 27 12 0 22 -68 16 -80 -6z"/>
<path d="M1590 2150 l0 -80 45 0 c25 0 45 5 45 10 0 6 -13 10 -30 10 -37 0
-41 27 -5 32 14 2 26 8 26 13 0 6 -12 11 -26 13 -20 3 -25 9 -25 33 0 26 3 29
30 29 17 0 30 5 30 10 0 6 -20 10 -45 10 l-45 0 0 -80z"/>
<path d="M1744 2216 c-10 -26 1 -139 14 -144 7 -2 12 6 12 22 0 23 4 26 35 26
31 0 35 -3 35 -25 0 -16 6 -25 15 -25 12 0 15 16 15 80 0 64 -3 80 -15 80 -11
0 -15 -11 -15 -40 0 -39 -1 -40 -35 -40 -34 0 -35 1 -35 40 0 39 -15 54 -26
26z"/>
<path d="M1961 2155 c-32 -71 -35 -111 -7 -72 17 22 72 23 84 1 5 -9 14 -15
20 -13 10 4 -38 131 -57 152 -4 4 -22 -27 -40 -68z m59 -27 c0 -4 -11 -8 -25
-8 -23 0 -24 2 -13 26 11 24 13 25 25 8 7 -10 13 -21 13 -26z"/>
<path d="M2110 2220 c0 -5 9 -10 20 -10 18 0 20 -7 20 -70 0 -56 3 -70 15 -70
12 0 15 14 15 70 0 63 2 70 20 70 11 0 20 5 20 10 0 6 -25 10 -55 10 -30 0
-55 -4 -55 -10z"/>
<path d="M2372 2218 c-20 -20 -14 -45 16 -67 47 -36 53 -42 46 -53 -4 -6 -22
-8 -41 -5 -24 4 -33 2 -30 -6 6 -19 72 -21 86 -3 19 23 6 59 -29 78 -41 23
-41 52 0 46 20 -3 30 0 30 9 0 17 -61 18 -78 1z"/>
<path d="M2546 2156 c-20 -43 -36 -80 -36 -82 0 -11 29 -2 34 11 3 9 18 15 40
15 21 0 36 -6 40 -15 6 -16 26 -21 26 -6 0 4 -15 42 -34 82 l-34 74 -36 -79z
m52 -11 c11 -23 10 -25 -14 -25 -20 0 -25 4 -20 16 3 9 6 20 6 25 0 18 17 8
28 -16z"/>
<path d="M2710 2150 c0 -64 3 -80 15 -80 9 0 15 9 15 25 0 22 4 25 35 25 31 0
35 -3 35 -25 0 -14 5 -25 10 -25 6 0 10 33 10 80 0 47 -4 80 -10 80 -5 0 -10
-18 -10 -40 0 -39 -1 -40 -35 -40 -34 0 -35 1 -35 40 0 29 -4 40 -15 40 -12 0
-15 -16 -15 -80z"/>
<path d="M2926 2163 c-40 -95 -40 -93 -23 -93 8 0 17 7 21 15 3 9 18 15 36 15
18 0 33 -6 36 -15 5 -13 34 -22 34 -11 0 8 -69 156 -72 156 -2 0 -16 -30 -32
-67z m44 -2 c0 -5 3 -16 6 -25 4 -12 0 -16 -15 -16 -22 0 -25 8 -15 34 7 17
24 22 24 7z"/>
<path d="M3080 2222 c0 -4 11 -24 25 -44 15 -22 25 -51 25 -72 0 -25 4 -36 15
-36 11 0 15 11 15 38 0 23 9 51 25 74 29 43 30 48 10 48 -8 0 -22 -14 -30 -31
-13 -24 -19 -28 -30 -19 -8 7 -17 20 -20 31 -6 18 -35 28 -35 11z"/>
<path d="M3291 2155 c-32 -71 -35 -111 -7 -72 17 22 72 23 84 1 5 -9 14 -15
20 -13 10 4 -38 131 -57 152 -4 4 -22 -27 -40 -68z m59 -27 c0 -4 -11 -8 -25
-8 -23 0 -24 2 -13 26 11 24 13 25 25 8 7 -10 13 -21 13 -26z"/>
<path d="M3450 2150 c0 -64 3 -80 15 -80 11 0 15 11 15 37 l0 36 33 -38 c18
-21 39 -36 46 -34 10 4 4 16 -18 42 l-33 37 32 40 c38 48 20 54 -27 8 l-33
-32 0 32 c0 22 -5 32 -15 32 -12 0 -15 -16 -15 -80z"/>
<path d="M2240 1935 c0 -13 36 -15 260 -15 224 0 260 2 260 15 0 13 -36 15
-260 15 -224 0 -260 -2 -260 -15z"/>
</g>
</svg>
